<svg width="290" height="115" viewBox="0 0 290 115" fill="none" xmlns="http://www.w3.org/2000/svg">
<path d="M38.244 104.076C31.9983 104.076 26.3516 102.622 21.3037 99.7127C16.3414 96.8037 12.4058 92.8253 9.49684 87.7775C6.67345 82.644 5.26176 76.8689 5.26176 70.4521C5.26176 64.0354 6.67345 58.303 9.49684 53.2552C12.4058 48.1218 16.3414 44.1006 21.3037 41.1916C26.3516 38.2827 31.9983 36.8282 38.244 36.8282C44.5752 36.8282 50.222 38.2827 55.1843 41.1916C60.2322 44.015 64.1678 47.9934 66.9912 53.1268C69.8146 58.2603 71.2263 64.0354 71.2263 70.4521C71.2263 76.8689 69.8146 82.644 66.9912 87.7775C64.1678 92.9109 60.2322 96.9321 55.1843 99.841C50.222 102.664 44.5752 104.076 38.244 104.076ZM38.244 94.3226C44.9175 94.3226 50.222 92.1409 54.1576 87.7775C58.1788 83.414 60.1894 77.6389 60.1894 70.4521C60.1894 63.2654 58.1788 57.4902 54.1576 53.1268C50.222 48.7634 44.9175 46.5817 38.244 46.5817C31.6561 46.5817 26.3516 48.7634 22.3304 53.1268C18.3948 57.4902 16.427 63.2654 16.427 70.4521C16.427 77.6389 18.3948 83.414 22.3304 87.7775C26.3516 92.1409 31.6561 94.3226 38.244 94.3226ZM119.568 104.076C114.776 104.076 110.328 103.007 106.221 100.868C102.114 98.6432 98.9484 95.6915 96.7239 92.0125H96.0823V102.793H85.9438V12.9578H96.5956V48.5068H97.2373C99.2907 45.0845 102.285 42.3039 106.221 40.1649C110.242 37.9405 114.691 36.8282 119.568 36.8282C125.129 36.8282 130.177 38.2399 134.711 41.0633C139.331 43.8867 142.968 47.8651 145.62 52.9985C148.272 58.0464 149.598 63.8643 149.598 70.4521C149.598 77.04 148.272 82.9007 145.62 88.0341C142.968 93.082 139.331 97.0176 134.711 99.841C130.177 102.664 125.129 104.076 119.568 104.076ZM117.258 94.3226C123.76 94.3226 128.936 92.1836 132.786 87.9058C136.636 83.6279 138.561 77.8101 138.561 70.4521C138.561 63.0087 136.636 57.1908 132.786 52.9985C128.936 48.7206 123.76 46.5817 117.258 46.5817C111.098 46.5817 106.092 48.7206 102.242 52.9985C98.4779 57.2764 96.5956 63.0942 96.5956 70.4521C96.5956 77.8101 98.4779 83.6279 102.242 87.9058C106.092 92.1836 111.098 94.3226 117.258 94.3226ZM178.259 102.793H166.709V12.9578H178.259V102.793ZM210.659 102.793H200.007V38.1116H210.659V102.793ZM205.269 28.2297C203.301 28.2297 201.675 27.588 200.392 26.3047C199.109 24.9358 198.467 23.3102 198.467 21.4279C198.467 19.4601 199.109 17.8345 200.392 16.5512C201.675 15.2678 203.301 14.6262 205.269 14.6262C207.151 14.6262 208.734 15.3106 210.017 16.6795C211.386 17.9629 212.071 19.5457 212.071 21.4279C212.071 23.3102 211.386 24.9358 210.017 26.3047C208.734 27.588 207.151 28.2297 205.269 28.2297ZM288.335 102.793H275.116L253.684 73.6605H241.364V102.793H230.712V12.9578H241.364V63.907H253.941L274.218 38.1116H286.795L263.053 68.2704L288.335 102.793Z" fill="black"/>
<circle cx="205.142" cy="24.0716" r="15.5836" fill="#37FFC0"/>
</svg>
