<?xml version="1.0" encoding="UTF-8"?>
<svg id="Layer_2" data-name="Layer 2" xmlns="http://www.w3.org/2000/svg" viewBox="0 0 221.07 199.7">
  <g id="Layer_1-2" data-name="Layer 1">
    <path d="M51.24,199.66c.32-.24,3.91-5.91,7.99-12.57,9.36-15.39,12.91-19.63,17.24-20.56,1.76-.34,4.3-.15,5.71.53,3.76,1.78,8.34,8.22,8.56,11.96.45,4.69,8.03,14.39,11.86,15.1,4.39.79,5.73-1.25,6.72-9.96,1.43-13.08,5.32-16.7,22.36-20.96,12.96-3.15,17.14-5.1,20.65-9.56,2.23-2.85,3.72-3.86,6.92-4.94,11.12-3.75,21.35-1.27,43.95,10.75,12.28,6.46,15.73,7.84,16.92,6.92,2.62-2.01.11-4.62-11.13-11.37-5.82-3.47-11.2-7.03-11.81-7.82-.67-.87-1.72-1.58-2.48-1.75-.7-.09-2.58-1.55-4.2-3.33-2.19-2.35-2.5-3.25-1.6-3.56,1.34-.4-3.68-2.98-8.33-4.44-1.44-.4-2.3-1.51-3.52-4.74-1.59-4.2-1.15-9.71,3.09-35.04,1.21-7.61,1.43-12.58.48-16.77-1.71-7.64-.34-10.46,11.72-23.64,10.23-11.14,12.05-14.68,9.25-18.33-1.28-1.67-2.16-1.99-3.41-1.16-.99.51-3.56,2.1-5.78,3.31-10.29,6.14-23.84,7.22-31.35,2.53-2.98-1.75-4.8-3.62-6.78-7.02-2.45-4.17-3.8-5.28-12.2-10.3-11.98-7.06-16.78-11.82-17.79-17.73l-.71-4.37-6.38,3.51c-16.81,9.14-31.64,9.05-41.84-.13l-2.81-2.51-.96,5.15c-1.13,5.91-2.77,7.55-8.2,8.2-4.84.44-12.21-2.1-28.04-9.73C28.46,2.13,22.57-.28,22.18.03c-1.51,1.16,1.17,7.93,7.66,18.83,3.55,6.1,6.89,12.74,7.47,14.81,2.26,8.35-1.12,16.75-8.53,21.56-4.84,3.22-8.99,1.11-14.73-7.35l-4.17-6.25,1.25,4.09c.71,2.23,2.66,6.91,4.4,10.49,8.3,16.7,5.77,29.49-6.27,32.06-2.57.59-5.71,1.11-6.93,1.16C.4,89.53.07,89.91,0,92.61c0,1.64.44,3.7,1.05,4.49s6.47,3.98,13.06,6.99c8.75,4,12.84,6.53,15.59,9.46,3.44,3.66,3.83,4.5,4.47,11.07,1.08,10.27,2.3,12.35,12.92,22.23,8.84,8.22,9.2,8.69,10.54,13.22,1.27,3.95,1.07,5.99-1.27,12.46-2.58,7.15-6.61,28.16-5.12,27.14Z"/>
  </g>
</svg>