<?xml version="1.0" encoding="UTF-8"?>
<svg id="Layer_2" data-name="Layer 2" xmlns="http://www.w3.org/2000/svg" viewBox="0 0 258.2 220.96">
  <g id="Layer_1-2" data-name="Layer 1">
    <path d="M111.68,3.93c-.05,2.28,1.03,8.86,2.45,14.6,1.46,5.65,2.94,12.97,3.45,16.15.94,5.28.83,5.98-1.11,7.6-6.52,5.47-18.57,2.84-30.6-6.56-8.45-6.68-15.57-10.46-17.01-9.11-1.11.92.33,5.21,5.48,17.06,6.82,15.69,6.23,19.79-4.48,30.59-8.75,8.77-11.17,13.06-10.5,18.89.56,5.49-.67,9.29-4.36,13.31-3.87,4.28-9.46,6.58-21.91,8.84C15.23,118.54.97,123.39,0,126.65c-.09.29,2.47.11,5.62-.32,5.2-.65,37.19-.55,43.54.18,5.87.59,10.83,7.8,13.8,19.94,2.34,9.35,4.59,13.36,9.71,17.9,2.83,2.4,6.19,6.21,7.62,8.41,3,4.65,5.03,13.28,4.55,19.5-.17,2.35-.59,8.69-.99,13.89-.89,11.1-.49,13.62,2.1,14.39,5.08,1.51,7.41-.72,13.63-13.27,4.72-9.24,6.24-11.19,10.57-13.14,2.62-1.1,5.69-1.24,11.41-.48,11.83,1.63,22.68,1.61,29.68.14,7.48-1.64,9.31-.79,14.24,6.51,3.76,5.6,6.36,7.41,5.99,4.07-.43-3.47,2.35-13.91,4.52-17.02,1.17-1.84,4.28-4.57,6.88-6.31,2.7-1.7,5.84-4.21,7.28-5.56,4.59-4.58,7.56-4.75,20.02-1.05s12.67,3.34,2.87-2.28c-10.97-6.28-12.19-10.6-4.88-16.26,5-3.84,8.81-5.11,19.49-6.64,4.69-.7,13.1-1.96,18.67-2.81,9.38-1.39,12.87-2.96,11.63-5.11-.17-.47-8.05-3.11-17.32-5.97-21.93-6.6-24.1-8.08-23.94-16.69.05-3.32.05-6.87.08-8.01s-.37-4.39-.88-7.25c-.78-4.4-.65-5.2.79-5.82,2.99-1.3,9.76.49,17.81,4.65,8.24,4.22,15.32,6.73,13.32,4.68-1.11-1.16-26.65-16.35-33.68-20.1-1.74-.83-4.56-2.92-6.19-4.44-2.91-2.84-3.02-3.19-1.65-7.79,1.48-4.99,4.12-8.27,13.82-17.08,4.57-4.17,7.14-7.9,5.7-8.32-.86-.26-6.37,1.45-15.65,4.96-13.81,5.08-17.5,5.56-25.33,3.13-8.79-2.71-24.05-13.18-25.13-17.25-.53-1.72-4.17-2.49-7.51-1.39-16.34,5.17-17.07,5.16-20.64-.38-1.33-1.85-4.97-9.61-8.14-17.22C117.89,7.96,113.97.43,112.53,0c-.38-.11-.7,1.67-.85,3.92Z"/>
  </g>
</svg>