<?xml version="1.0" encoding="UTF-8"?>
<svg id="Layer_2" data-name="Layer 2" xmlns="http://www.w3.org/2000/svg" viewBox="0 0 236.95 210.97">
  <g id="Layer_1-2" data-name="Layer 1">
    <path d="M40.78,69.53c1.51,12.94,2.48,23.56,2.15,23.79-.24.17-10.13-1.61-21.92-3.99C9.36,86.97-.13,85.4,0,85.92s11.32,8.25,24.82,17.16c13.5,8.9,24.74,16.36,24.92,16.6s-1.7,6.38-4.27,13.63c-3.91,11.04-4.72,15.06-3.61,16.6.12.16,2.14-.79,4.51-2.12,8.45-4.69,14.5-3.62,15.68,2.67.92,4.38,5,9.21,14.17,16.54,11.32,9.11,13.59,12.29,13.04,18.22-.48,4.65,1.48,8.78,4.41,9.26.98.16,3.38-.94,5.41-2.4,4.88-3.49,9.66-5.07,13.59-4.56,3.79.48,4.95,2.11,7.11,9.42,1.91,6.62,6.21,13.14,8.77,13.28,1.34.15,3.94-2.57,11.02-11.58,10.5-13.17,16.22-18.74,19.06-18.56,3.26.25,8.64,7.09,14.4,18.23,9.34,18.03,9.85,17.54,6.06-6.31-3.68-23.19-3.9-21.43,4.79-32.82,9.15-11.96,13.56-13.52,22.43-8.18,4.95,2.97,9.23,3.97,9.95,2.22.26-.67-1.56-3.56-4.85-7.47-8.36-10.13-10.69-18.54-9.37-33.88.66-6.99,2.84-10.64,8.44-14.16,2.07-1.23,3.82-2.74,3.91-3.29s1.06-1.62,2.11-2.37c2.68-1.92,1.66-2.66-4.32-2.94-5.03-.33-11.37-2.31-12.59-4.02-2.13-3.15-1.19-4.07,18.28-18.62l19.06-14.26-23.64,5.97c-13.1,3.35-23.9,5.79-24.13,5.46s.14-2.56.87-4.8c1.47-4.99.48-7.23-2.45-5.14-4.96,3.55-3.07-2.23,3.54-10.52,2.16-2.65,4.84-6.29,5.86-8.13,1.08-1.76,2.84-4.62,3.92-6.37s1.33-3.29.69-3.33-7.52,3.41-15.2,7.8c-7.74,4.31-15.55,8.18-17.42,8.65-3.28.75-3.42.72-4.82-2.95-.73-2.06-1.18-8.01-1.05-13.15.22-5.2.11-11.02-.15-12.93-.5-3.45-.56-3.53-2.56-2.72-1.15.45-5.92,4.61-10.57,9.29-14.47,14.66-16.25,13.72-9.32-4.77,7.14-18.89,6.27-19.24-6.79-2.27-4.66,6.04-9.49,11.83-10.67,12.93-3.24,2.69-7.13,1.04-14.7-6.45-6.71-6.63-11.79-9.77-14.19-8.66-.71.38-2.42,5.55-3.72,11.64-1.35,6.01-2.71,11.16-3.03,11.4-.41.29-1.05,1.12-1.6,1.88-.68,1.1-1.3.93-2.47-.7-2.21-3.09-6.92-3.66-9.08-1-1.05,1.12-2.42,2.47-3.07,2.93s-.86,3.44-.59,6.57c.64,5.2.41,5.73-2.52,7.83-4.15,2.97-6.9,2.73-17.88-1.96-5.09-2.13-9.88-3.5-10.73-3.14-1.09.54-.77,6.82,1.27,23.93Z"/>
  </g>
</svg>